0
SECTION
2
HEADER
9
$INSUNITS
70
4
9
$ACADVER
1
AC1014
9
$HANDSEED
5
FFFF
0
ENDSEC
0
SECTION
2
TABLES
0
TABLE
2
VPORT
5
8
100
AcDbSymbolTable
0
ENDTAB
0
TABLE
2
LTYPE
5
5
100
AcDbSymbolTable
0
LTYPE
5
14
100
AcDbSymbolTableRecord
100
AcDbLinetypeTableRecord
2
BYBLOCK
70
0
0
LTYPE
5
15
100
AcDbSymbolTableRecord
100
AcDbLinetypeTableRecord
2
BYLAYER
70
0
0
LTYPE
5
16
100
AcDbSymbolTableRecord
100
AcDbLinetypeTableRecord
2
DASHED
70
0
3
Dashed __ __ __ __ __ __ __ __ __ __ __ __ __ _
72
65
73
2
40
0.75
49
0.5
74
0
49
-0.25
74
0
0
ENDTAB
0
TABLE
2
LAYER
5
2
100
AcDbSymbolTable
70
3
0
LAYER
5
50
100
AcDbSymbolTableRecord
100
AcDbLayerTableRecord
2
1
70
0
62
7
6
DASHED
0
LAYER
5
51
100
AcDbSymbolTableRecord
100
AcDbLayerTableRecord
2
0
70
0
62
7
6
CONTINUOUS
0
ENDTAB
0
TABLE
2
STYLE
5
3
100
AcDbSymbolTable
70
1
0
STYLE
5
11
100
AcDbSymbolTableRecord
100
AcDbTextStyleTableRecord
2
STANDARD
70
0
0
ENDTAB
0
TABLE
2
VIEW
5
6
100
AcDbSymbolTable
70
0
0
ENDTAB
0
TABLE
2
UCS
5
7
100
AcDbSymbolTable
70
0
0
ENDTAB
0
TABLE
2
APPID
5
9
100
AcDbSymbolTable
70
2
0
APPID
5
12
100
AcDbSymbolTableRecord
100
AcDbRegAppTableRecord
2
ACAD
70
0
0
ENDTAB
0
TABLE
2
DIMSTYLE
5
A
100
AcDbSymbolTable
70
1
0
ENDTAB
0
TABLE
2
BLOCK_RECORD
5
1
100
AcDbSymbolTable
70
1
0
BLOCK_RECORD
5
1F
100
AcDbSymbolTableRecord
100
AcDbBlockTableRecord
2
*MODEL_SPACE
0
BLOCK_RECORD
5
1B
100
AcDbSymbolTableRecord
100
AcDbBlockTableRecord
2
*PAPER_SPACE
0
ENDTAB
0
ENDSEC
0
SECTION
2
BLOCKS
0
BLOCK
5
20
100
AcDbEntity
100
AcDbBlockBegin
2
*MODEL_SPACE
0
ENDBLK
5
21
100
AcDbEntity
100
AcDbBlockEnd
0
BLOCK
5
1C
100
AcDbEntity
100
AcDbBlockBegin
2
*PAPER_SPACE
0
ENDBLK
5
1D
100
AcDbEntity
100
AcDbBlockEnd
0
ENDSEC
0
SECTION
2
ENTITIES
0
LWPOLYLINE
5
100
100
AcDbEntity
8
0
100
AcDbPolyline
90
956
70
1
43
0.0
10
827.09673399999997
20
454.150935
10
826.84644300000002
20
453.01262199999996
10
826.61974699999996
20
451.87168399999996
10
826.41669000000002
20
450.72838100000001
10
826.23732200000006
20
449.58297500000003
10
825.92060900000001
20
447.27485700000011
10
825.82133399999998
20
446.714471
10
825.701008
20
446.15628000000004
10
825.60936700000013
20
445.79812300000009
10
825.50274300000012
20
445.44217699999996
10
825.38123799999994
20
445.08877800000005
10
825.21795700000007
20
444.69069000000002
10
825.03692100000012
20
444.29670499999997
10
824.83832600000005
20
443.90724500000005
10
824.62238400000001
20
443.52272400000004
10
824.3893230000001
20
443.14355300000011
10
823.81035100000008
20
442.25729800000011
10
823.21959500000003
20
441.37518800000004
10
822.1523380000001
20
439.70195799999999
10
821.88795300000015
20
439.30431500000003
10
821.60512000000017
20
438.91347800000005
10
821.30416600000001
20
438.52990500000004
10
820.98544600000014
20
438.15403600000002
10
820.63839700000005
20
437.79234600000001
10
820.27338100000009
20
437.440181
10
819.89089300000001
20
437.09801600000003
10
819.4914490000001
20
436.76631100000009
10
818.66612499999997
20
436.1175990000001
10
816.99633600000016
20
434.8553950000001
10
816.15885000000003
20
434.23732100000001
10
815.58457400000009
20
433.832358
10
814.99262800000008
20
433.44115700000003
10
814.38362800000004
20
433.06412599999999
10
813.89351900000008
20
432.78356200000007
10
813.39272000000005
20
432.51322900000002
10
812.881619
20
432.25333900000004
10
812.36063300000012
20
432.0041030000001
10
811.63464299999998
20
431.677953
10
810.89539200000002
20
431.36803700000002
10
810.14357300000017
20
431.07463800000005
10
809.50458200000014
20
430.84201800000005
10
808.855772
20
430.62432900000005
10
808.12224600000013
20
430.39444600000002
10
807.38350300000002
20
430.17362000000003
10
805.46354000000008
20
429.62311500000004
10
803.5358500000001
20
429.08715599999994
10
796.687589
20
427.22168299999998
10
770.89776400000005
20
420.28612300000009
10
709.87050199999999
20
403.89820499999996
10
461.43649800000003
20
337.12392799999998
10
458.77572600000002
20
337.57707599999998
10
456.12596600000006
20
338.063312
10
454.69996400000002
20
338.33993799999996
10
453.28001200000006
20
338.632633
10
451.866443
20
338.94132400000001
10
451.224737
20
339.09058700000003
10
450.58773200000007
20
339.250203
10
449.95574599999998
20
339.42009100000001
10
449.32909100000006
20
339.60017200000004
10
448.56444800000008
20
339.84215800000004
10
447.80573300000009
20
340.09387200000003
10
447.09019299999994
20
340.32445999999999
10
446.38251900000006
20
340.56760700000007
10
445.94653499999998
20
340.73602999999997
10
445.52065999999996
20
340.91768199999996
10
445.10564900000008
20
341.11224300000003
10
444.70223799999997
20
341.319365
10
444.16919299999995
20
341.618852
10
443.64781500000004
20
341.92906400000004
10
443.13851100000011
20
342.24976000000004
10
442.64167800000001
20
342.580693
10
441.89720399999999
20
343.09664199999997
10
441.16884100000004
20
343.62467400000008
10
440.45695599999993
20
344.16452000000004
10
439.77472400000011
20
344.70300600000002
10
439.10970300000002
20
345.25281800000005
10
438.46224299999994
20
345.81366000000003
10
438.03347300000013
20
346.20178000000004
10
437.61745500000006
20
346.59720899999996
10
437.21442500000001
20
346.99972400000001
10
436.82460400000002
20
347.40909700000003
10
436.50190700000002
20
347.77085199999999
10
436.19367000000005
20
348.139253
10
435.90015300000005
20
348.51399000000004
10
435.62160000000006
20
348.894747
10
435.30249100000003
20
349.36624700000004
10
435.00183700000008
20
349.84415100000001
10
434.719877
20
350.32807400000002
10
434.45354800000013
20
350.81190899999996
10
434.20835000000005
20
351.301648
10
433.98452700000001
20
351.79679900000002
10
433.82838700000008
20
352.19112700000005
10
433.69302099999999
20
352.58951500000001
10
433.57862300000011
20
352.99138399999998
10
433.48535499999997
20
353.39614400000005
10
433.410212
20
353.84329900000006
10
433.35602800000004
20
354.29206200000004
10
433.32286199999999
20
354.74190899999996
10
433.31075999999996
20
355.19232
10
433.315293
20
355.67677599999996
10
433.3348190000001
20
356.16103199999998
10
433.36932999999999
20
356.64484500000009
10
433.41880599999996
20
357.12796500000002
10
433.48745500000001
20
357.68335299999995
10
433.57993800000003
20
358.23689999999999
10
433.69615600000003
20
358.78806000000003
10
433.83600199999995
20
359.336298
10
433.99933400000003
20
359.88107400000001
10
434.18599200000006
20
360.42184900000001
10
434.39579800000013
20
360.95809500000001
10
434.62854000000004
20
361.48928799999999
10
434.89917800000001
20
362.05408299999999
10
435.18829600000004
20
362.61398900000006
10
435.49573200000003
20
363.16868300000004
10
435.82130400000005
20
363.71784600000007
10
436.164829
20
364.261166
10
436.59689100000008
20
364.90599100000003
10
437.04916300000002
20
365.54340400000001
10
437.52140700000007
20
366.17307000000005
10
438.01337100000006
20
366.79466000000002
10
438.52479600000004
20
367.40784100000008
10
439.12855000000008
20
368.09516600000001
10
439.75012300000003
20
368.77399700000007
10
440.38928600000008
20
369.44408799999997
10
441.04580999999996
20
370.10519500000009
10
441.71945899999997
20
370.75708100000008
10
442.42838000000006
20
371.42190099999999
10
443.15190999999999
20
372.07830000000001
10
443.88986700000004
20
372.72610800000001
10
444.64205300000003
20
373.36515299999996
10
445.40827699999994
20
373.99527499999999
10
446.157939
20
374.59090099999997
10
446.92024300000003
20
375.17793699999999
10
447.69500600000003
20
375.75623800000005
10
448.482035
20
376.32566800000001
10
449.281139
20
376.88608299999999
10
450.66588800000005
20
377.82302799999997
10
452.07271900000012
20
378.74231600000002
10
453.50121000000001
20
379.64367599999997
10
455.08455599999996
20
380.619235
10
456.68657300000007
20
381.57845500000002
10
458.30694500000004
20
382.52114300000005
10
459.65038600000008
20
383.28046800000004
10
461.00799900000004
20
384.026274
10
462.37952400000006
20
384.75842499999999
10
463.76470900000004
20
385.47677599999997
10
465.75560000000002
20
386.47117100000003
10
467.7669360000001
20
387.44344600000005
10
469.79825800000009
20
388.39338199999997
10
472.85468100000003
20
389.782962
10
475.9330030000001
20
391.14660600000008
10
481.60333200000002
20
393.6094930000001
10
486.27784400000002
20
395.65183400000001
10
487.38250700000009
20
396.14946600000002
10
488.47626900000012
20
396.65973600000001
10
489.55885899999998
20
397.18252100000001
10
490.13455700000009
20
397.47406600000005
10
490.701167
20
397.77493100000004
10
491.13139800000005
20
398.01695000000001
10
491.54936900000001
20
398.27013399999998
10
491.85070099999996
20
398.47030200000006
10
492.134952
20
398.68333900000005
10
492.27600099999995
20
398.80104100000005
10
492.40382900000009
20
398.92651599999999
10
492.51763099999999
20
399.05897500000003
10
492.616693
20
399.197585
10
492.67528700000008
20
399.30773799999997
10
492.71919000000003
20
399.42146700000001
10
492.74799999999999
20
399.53773100000006
10
492.76145700000001
20
399.65547100000003
10
492.30648400000007
20
399.79418600000002
10
491.84387900000002
20
399.91876500000001
10
491.37446600000004
20
400.02898299999998
10
490.899089
20
400.12464200000005
10
490.41858899999994
20
400.20557400000001
10
489.90899299999995
20
400.27827900000005
10
489.39677100000006
20
400.3403990000001
10
488.88233000000002
20
400.391886
10
488.23468899999995
20
400.44537800000001
10
487.58573899999999
20
400.48962100000006
10
486.93572500000005
20
400.52459500000003
10
485.69053099999996
20
400.57486299999999
10
484.44427800000005
20
400.60841000000005
10
481.87658600000009
20
400.64569500000005
10
479.30843799999997
20
400.657669
10
471.95351200000005
20
400.63742000000002
10
458.65062800000004
20
400.55017300000003
10
444.92100499999998
20
400.47088300000007
10
431.13818900000001
20
400.44710000000003
10
427.76429800000011
20
400.41741999999999
10
426.81926799999997
20
400.40081800000002
10
425.87477300000012
20
400.37233500000008
10
424.93108800000005
20
400.33198099999998
10
423.98850000000004
20
400.279765
10
423.25410000000005
20
400.22341299999999
10
422.52165600000001
20
400.15484500000008
10
421.14068700000007
20
399.99996900000008
10
420.49183900000003
20
399.91696899999999
10
419.84523600000011
20
399.82512500000007
10
419.32353699999999
20
399.739012
10
418.806175
20
399.639948
10
418.29376300000007
20
399.52805100000006
10
417.78689200000002
20
399.40345100000002
10
417.21351499999997
20
399.24259500000005
10
416.64625000000001
20
399.07061300000004
10
416.08549900000008
20
398.88762500000007
10
415.53166400000009
20
398.69376
10
414.72925000000004
20
398.40045000000003
10
413.93212500000004
20
398.09957300000008
10
412.515353
20
397.542981
10
411.89949600000006
20
397.28282900000005
10
411.44411100000002
20
397.07388900000007
10
410.99823700000002
20
396.85431100000005
10
410.562343
20
396.62433099999998
10
410.13688500000001
20
396.38418400000006
10
409.72230800000006
20
396.13412500000004
10
409.2610390000001
20
395.84162300000003
10
408.80926399999998
20
395.54135099999996
10
408.36722500000008
20
395.23346800000007
10
407.82062700000006
20
394.83667300000008
10
407.28413799999998
20
394.43260899999996
10
406.75794500000001
20
394.02141200000005
10
405.87904900000007
20
393.30887100000007
10
405.01365200000004
20
392.58760000000001
10
404.16191200000009
20
391.85773699999999
10
401.82471200000009
20
389.80752300000006
10
394.34809400000006
20
383.133557
10
390.84904300000005
20
380.094719
10
387.291292
20
377.09233000000006
10
383.87086899999997
20
374.29071700000003
10
380.38871899999998
20
371.52982000000003
10
378.25190400000002
20
369.884525
10
376.08647300000001
20
368.25924199999997
10
373.89277900000002
20
366.65423500000003
10
371.92044199999998
20
365.24944400000004
10
369.92028099999999
20
363.86572800000005
10
367.89271600000001
20
362.50337300000007
10
366.53560499999998
20
361.61551600000001
10
365.16095800000005
20
360.74211299999996
10
363.769069
20
359.883351
10
362.36023
20
359.03940900000003
10
361.30439900000005
20
358.42676299999999
10
360.23622
20
357.825605
10
359.15592700000002
20
357.23606600000005
10
358.06375300000002
20
356.65827999999999
10
356.95994500000006
20
356.09237100000001
10
355.87714199999999
20
355.55540299999996
10
354.78306000000003
20
355.030731
10
353.67796499999997
20
354.51847600000002
10
352.56211800000005
20
354.01876600000003
10
351.43578600000006
20
353.53171600000002
10
350.40133500000002
20
353.09942400000006
10
349.35573700000009
20
352.68162899999999
10
348.299374
20
352.27848200000005
10
347.23263300000008
20
351.89013700000004
10
346.15590600000007
20
351.51673000000005
10
345.35735
20
351.25653199999999
10
344.55053200000003
20
351.01026200000001
10
343.73590300000001
20
350.77805799999999
10
343.02981100000005
20
350.59197000000006
10
342.31702000000007
20
350.419982
10
341.59806800000007
20
350.262224
10
340.87348399999996
20
350.11881000000005
10
340.14380800000004
20
349.98985099999999
10
339.35279199999997
20
349.86839700000007
10
338.55794400000002
20
349.76104700000002
10
337.75974100000008
20
349.66786500000006
10
336.95866100000001
20
349.588909
10
336.15517500000004
20
349.524224
10
335.124236
20
349.455556
10
334.09169300000002
20
349.40117299999997
10
333.05792400000001
20
349.36109100000004
10
331.72111800000005
20
349.32681000000002
10
330.38376700000003
20
349.306916
10
329.04615799999999
20
349.30141299999997
10
327.70858099999998
20
349.31029999999998
10
325.66212300000007
20
349.34339700000004
10
323.61643300000003
20
349.39601000000005
10
321.57186100000001
20
349.46813100000008
10
318.45049900000004
20
349.60705500000006
10
315.33199999999999
20
349.77676600000001
10
312.21693900000002
20
349.97723400000007
10
308.59918500000003
20
350.24374700000004
10
304.98602099999999
20
350.54153500000007
10
301.37796200000003
20
350.87055600000008
10
295.23562299999998
20
351.48899999999998
10
289.10438900000003
20
352.16346200000004
10
276.43471499999998
20
353.68687200000005
10
264.23940800000003
20
355.28960500000005
10
252.07919400000003
20
357.02833500000003
10
238.94999300000001
20
359.04430600000006
10
224.30390500000001
20
361.41641800000002
10
194.94073100000003
20
366.41668199999998
10
186.912486
20
367.87918600000006
10
182.27495200000004
20
368.78391899999997
10
178.31525400000001
20
369.54420200000004
10
177.20705100000001
20
369.74475200000001
10
176.09425300000001
20
369.93127400000003
10
174.97718600000002
20
370.10371099999998
10
174.40302900000003
20
370.18188399999997
10
173.82622800000004
20
370.24893800000001
10
173.24719999999999
20
370.30482900000004
10
172.666337
20
370.349515
10
171.82320100000001
20
370.390198
10
170.189266
20
370.42773900000009
10
169.39951500000001
20
370.43209000000002
10
168.85818500000002
20
370.42222599999997
10
168.317902
20
370.39577599999996
10
167.77962200000002
20
370.35278700000003
10
167.35136799999998
20
370.30339700000007
10
166.92568700000004
20
370.24332900000002
10
166.50308200000001
20
370.17265000000003
10
166.08405000000002
20
370.09144600000008
10
165.50515300000001
20
369.96396499999997
10
164.93289900000002
20
369.82142400000009
10
164.36802299999999
20
369.66401400000001
10
163.92769200000001
20
369.53070600000001
10
163.49427299999999
20
369.38586000000009
10
163.068333
20
369.22966200000008
10
162.650429
20
369.062319
10
162.14727400000001
20
368.83829900000001
10
161.65642600000001
20
368.60020700000001
10
161.17863300000005
20
368.34839399999998
10
160.714606
20
368.08324700000009
10
160.11097599999999
20
367.71550999999999
10
159.52289400000001
20
367.33461499999999
10
158.95089999999999
20
366.94091200000003
10
158.39552399999999
20
366.53475900000001
10
157.88131999999999
20
366.13924500000002
10
157.381359
20
365.73414300000002
10
156.89597000000001
20
365.31972200000007
10
156.425487
20
364.89626499999997
10
155.97022500000003
20
364.46405499999997
10
155.383565
20
363.86583199999995
10
154.816699
20
363.25754799999999
10
154.26995199999999
20
362.63955399999998
10
153.74363799999998
20
362.01220000000001
10
151.69014900000002
20
359.45653300000004
10
149.758983
20
357.09271200000001
10
147.791168
20
354.74501800000007
10
146.79276000000002
20
353.56493800000004
10
145.77115600000002
20
352.39545800000002
10
145.10225299999999
20
351.65993000000003
10
144.41950299999999
20
350.931196
10
143.72303099999999
20
350.20939500000003
10
143.01297700000001
20
349.49466800000005
10
141.028043
20
347.56254000000007
10
139.01078000000001
20
345.64829600000002
10
134.31160299999999
20
341.20503600000001
10
129.57213999999999
20
336.63956500000006
10
127.22439600000001
20
334.40171299999997
10
124.83490600000002
20
332.18747200000001
10
123.25140300000001
20
330.769814
10
121.64484899999999
20
329.36601100000007
10
120.01546699999999
20
327.97626200000002
10
117.588213
20
325.95013600000004
10
115.135825
20
323.94016200000004
10
109.880415
20
319.71525900000006
10
104.52496500000002
20
315.55767500000002
10
97.744682000000012
20
310.487168
10
89.413488999999998
20
304.43524300000001
10
79.62111800000001
20
297.46417300000007
10
70.169790000000006
20
290.86688300000003
10
63.850687999999998
20
286.57751300000001
10
57.441800000000001
20
282.35954900000002
10
53.544121000000004
20
279.82105799999999
10
52.827064000000007
20
279.34531699999997
10
52.116132000000007
20
278.86471599999999
10
51.571424999999998
20
278.48631699999999
10
51.037700999999998
20
278.09968599999996
10
50.659652000000008
20
277.80909500000001
10
50.298648999999997
20
277.50720099999995
10
50.127208000000003
20
277.35309799999999
10
49.969239999999999
20
277.19152200000002
10
49.825361000000008
20
277.02309200000002
10
49.696129000000006
20
276.84846699999997
10
49.622571999999998
20
276.72211300000004
10
49.563699
20
276.59173700000002
10
49.519917000000007
20
276.458235
10
49.491531000000002
20
276.322542
10
53.652318999999991
20
274.53025000000002
10
60.330051000000005
20
274.407106
10
67.005184
20
274.22372300000001
10
72.754124000000004
20
274.012565
10
78.497868999999994
20
273.73630100000003
10
81.299644999999998
20
273.56839100000002
10
84.097770999999995
20
273.37073900000001
10
86.891650000000013
20
273.14338800000002
10
90.162107000000006
20
272.839203
10
93.428224999999998
20
272.51116500000001
10
99.645293000000024
20
271.870001
10
101.69638800000001
20
271.639929
10
103.742806
20
271.38867599999998
10
105.78413
20
271.11629700000003
10
107.79675300000001
20
270.81759599999998
10
109.80377900000001
20
270.49949100000003
10
111.804851
20
270.16204099999999
10
117.839372
20
269.11554000000001
10
120.91035500000002
20
268.59705099999996
10
123.24605099999999
20
268.19336800000002
10
125.57305700000001
20
267.763845
10
126.75322700000001
20
267.53108199999997
10
127.92783800000001
20
267.28382299999998
10
129.09656000000001
20
267.02214300000003
10
130.25905399999999
20
266.74611700000003
10
131.50632999999999
20
266.42500699999999
10
132.74623600000001
20
266.08906999999999
10
133.97844200000003
20
265.73839600000002
10
135.202618
20
265.37307400000003
10
136.41843500000002
20
264.99320699999998
10
139.30806200000001
20
264.05358799999999
10
142.17935800000001
20
263.08455800000002
10
152.02488099999999
20
259.773797
10
156.605223
20
258.26594700000004
10
157.72331200000002
20
257.88392200000004
10
158.83249799999999
20
257.48834500000004
10
159.93247
20
257.07932499999998
10
161.02292800000001
20
256.65697400000005
10
162.08777900000001
20
256.21854900000005
10
163.14133200000001
20
255.76584700000001
10
164.18323100000003
20
255.299026
10
165.21311600000001
20
254.81824500000002
10
167.23775600000005
20
253.83678900000004
10
169.24070600000005
20
252.83195500000002
10
172.94843299999999
20
250.931579
10
176.612641
20
248.98684900000006
10
177.95340300000004
20
248.24626300000003
10
179.28025700000003
20
247.49248100000003
10
180.592961
20
246.72564100000002
10
181.89126900000002
20
245.94588300000001
10
182.66348300000001
20
245.47547700000001
10
183.42780200000004
20
244.998267
10
184.18411599999999
20
244.51432200000002
10
184.93809800000002
20
244.01274500000002
10
185.67456899999999
20
243.49752200000006
10
186.39306299999998
20
242.96897799999999
10
187.12088500000004
20
242.40009000000001
10
187.83160000000004
20
241.81981500000001
10
188.52487600000001
20
241.228432
10
189.577157
20
240.30227400000001
10
190.61621400000001
20
239.368212
10
191.63878600000001
20
238.44253800000001
10
192.64830800000001
20
237.50928200000001
10
193.23578300000003
20
236.949288
10
193.803406
20
236.378513
10
194.35080900000003
20
235.79733500000003
10
194.66094600000002
20
235.44107300000002
10
194.95656600000001
20
235.07830900000002
10
195.23740599999999
20
234.70935499999999
10
195.503229
20
234.33453400000002
10
195.92971300000002
20
233.68276000000003
10
196.72373700000003
20
232.39266700000002
10
197.09865300000004
20
231.75707299999999
10
197.26076000000003
20
231.46639300000004
10
197.40898600000003
20
231.17180300000001
10
197.54315700000004
20
230.87365199999999
10
197.66311200000004
20
230.57229800000002
10
197.74235400000003
20
230.32170800000003
10
197.80153200000001
20
230.06819000000002
10
197.84045000000003
20
229.81259600000001
10
197.85897700000004
20
229.55578799999998
10
197.85704899999999
20
229.29862799999998
10
197.83467700000003
20
229.04198000000002
10
197.79192900000001
20
228.78671200000002
10
197.72895800000001
20
228.53368
10
197.642989
20
228.255044
10
197.542091
20
227.97908199999998
10
197.42641200000003
20
227.70621800000001
10
197.29613999999998
20
227.43687600000001
10
196.98661100000004
20
226.84758599999998
10
196.662351
20
226.26252100000002
10
196.32347200000001
20
225.68187700000004
10
195.478689
20
224.26734400000001
10
194.60335700000002
20
222.86272100000002
10
194.05497500000001
20
222.01339400000001
10
193.49056000000004
20
221.16966800000003
10
192.91021499999999
20
220.33170299999998
10
192.31405700000005
20
219.49966500000002
10
191.76875699999999
20
218.77213799999998
10
191.20625700000002
20
218.05160599999999
10
190.62673000000001
20
217.33828700000004
10
190.03034
20
216.63239100000001
10
189.41727499999999
20
215.93413200000001
10
188.39864900000003
20
214.80893500000005
10
187.35739100000001
20
213.694807
10
185.99854399999998
20
212.27602300000001
10
184.62260400000002
20
210.86602799999997
10
178.94878600000001
20
205.203236
10
173.16201899999999
20
199.60153200000005
10
167.26353799999998
20
194.06211299999998
10
162.17950500000001
20
189.439605
10
157.01194899999999
20
184.86659299999999
10
145.54065299999999
20
175.00247999999999
10
132.52024900000004
20
164.02401300000002
10
120.37591800000001
20
153.93234799999999
10
111.51247300000001
20
146.717951
10
105.498659
20
141.88161500000001
10
103.42034200000001
20
140.18745800000002
10
101.36507700000001
20
138.47841499999998
10
100.50550200000002
20
137.750418
10
99.659031999999996
20
137.01430200000001
10
98.825809000000007
20
136.27019799999999
10
98.460747999999995
20
135.93033300000002
10
98.106486000000004
20
135.58444800000001
10
97.901444999999995
20
135.37412399999999
10
97.71148500000001
20
135.15639899999999
10
97.537118000000021
20
134.931848
10
97.451678000000015
20
134.798069
10
97.381558000000012
20
134.65963300000001
10
97.327229000000003
20
134.51747700000001
10
97.280101000000002
20
134.35466100000002
10
97.248040000000003
20
134.18991
10
97.231193000000005
20
134.02396500000003
10
97.231059000000002
20
133.87344100000001
10
97.249521000000016
20
133.723525
10
97.286434000000014
20
133.57542800000002
10
97.340103000000013
20
133.44575700000001
10
97.410332999999994
20
133.32036299999999
10
97.496494000000013
20
133.20036499999998
10
97.64898500000001
20
133.02292299999999
10
97.813739999999996
20
132.85141100000001
10
97.881483000000017
20
132.784322
10
97.959370000000007
20
132.72336899999999
10
98.046371000000008
20
132.66936299999998
10
98.162888000000009
20
132.61563600000002
10
98.285849000000013
20
132.570176
10
98.466265000000007
20
132.52145900000002
10
98.648213999999996
20
132.47882900000002
10
98.886527000000015
20
132.43511799999999
10
99.269646999999992
20
132.379998
10
99.65513900000002
20
132.33452199999999
10
100.042553
20
132.298743
10
100.97033500000001
20
132.231178
10
101.90028599999999
20
132.18196399999999
10
103.529864
20
132.12061900000003
10
105.16061000000001
20
132.07899499999999
10
108.67212500000001
20
132.03261300000003
10
112.184203
20
132.02532600000001
10
115.696023
20
132.05713400000002
10
119.20676800000001
20
132.12803300000002
10
121.78540400000001
20
132.20604699999998
10
124.362765
20
132.30393899999999
10
132.93110200000001
20
132.71516
10
143.743582
20
133.272415
10
162.97597500000001
20
134.178437
10
185.44657800000004
20
135.17482900000002
10
207.58908200000005
20
136.14927
10
217.03209100000004
20
136.58760100000001
10
224.52100900000002
20
136.97071699999998
10
227.07218799999998
20
137.11930100000001
10
229.62094500000003
20
137.28852800000001
10
230.87443100000002
20
137.38418100000001
10
232.12571300000002
20
137.494122
10
232.89284600000002
20
137.57082
10
233.65647400000003
20
137.664276
10
234.41591000000003
20
137.774407
10
234.87023900000003
20
137.855133
10
235.32033799999999
20
137.947599
10
235.76563500000003
20
138.05168899999998
10
236.48295200000004
20
138.23214099999998
10
237.193848
20
138.42563000000001
10
237.89787700000002
20
138.632034
10
238.69922400000004
20
138.88496000000001
10
239.49247400000004
20
139.151106
10
240.277218
20
139.43033300000002
10
241.47707999999997
20
139.8817
10
242.66575500000002
20
140.34852900000001
10
243.84287999999998
20
140.83067299999999
10
245.00807400000002
20
141.32798000000003
10
246.16097600000001
20
141.84028899999998
10
252.16935899999999
20
147.41575800000001
10
258.26180499999998
20
152.942519
10
265.01872300000002
20
158.93627900000001
10
271.857798
20
164.88029800000004
10
287.25735299999997
20
177.94054700000001
10
301.28657099999998
20
189.495026
10
306.66526699999997
20
193.77837
10
309.47277800000001
20
195.95838400000002
10
312.32065299999999
20
198.11038400000001
10
315.208369
20
200.23397200000002
10
318.13539400000002
20
202.328756
10
321.48259300000001
20
204.67997500000001
10
324.86942800000003
20
207.00082399999999
10
327.08288500000003
20
208.477903
10
329.32644500000004
20
209.93063599999999
10
331.59961099999998
20
211.35869700000001
10
333.20766200000003
20
212.33544100000003
10
334.83344299999999
20
213.29645900000003
10
336.47665799999999
20
214.241579
10
338.137022
20
215.17063500000003
10
340.07141600000006
20
216.22122500000003
10
342.03034300000007
20
217.247364
10
344.01322900000002
20
218.24874199999999
10
345.19901900000002
20
218.82841600000003
10
346.39787000000007
20
219.39363200000003
10
347.60944600000005
20
219.94422999999998
10
348.83341700000005
20
220.48005700000002
10
349.801738
20
220.88553500000003
10
350.78205099999997
20
221.27538700000002
10
351.77389199999999
20
221.64942500000001
10
352.7767740000001
20
222.00747000000004
10
353.61047900000005
20
222.28659199999998
10
354.45284500000008
20
222.55153399999998
10
355.30341700000002
20
222.80214799999999
10
356.16174000000001
20
223.03830400000004
10
357.19732900000002
20
223.30185900000001
10
358.24018599999999
20
223.54971000000003
10
359.28986200000003
20
223.78175299999998
10
360.34627499999999
20
224.00481299999998
10
361.40838700000006
20
224.21298399999998
10
362.47580700000003
20
224.40619100000004
10
363.37719200000004
20
224.55369100000001
10
364.28253699999999
20
224.68766700000003
10
365.19146599999999
20
224.80806600000005
10
366.10359399999999
20
224.91483599999998
10
367.18465900000007
20
225.02416499999998
10
368.26777299999998
20
225.12212599999998
10
369.35271
20
225.20870099999999
10
370.43924599999997
20
225.28387300000003
10
372.822114
20
225.42701700000003
10
375.20743199999998
20
225.54649300000005
10
377.62982400000004
20
225.64910400000002
10
380.05424199999999
20
225.72195300000001
10
381.253759
20
225.74330000000003
10
382.45360099999999
20
225.74954300000002
10
383.65341000000001
20
225.74068500000004
10
384.85283400000003
20
225.71672599999999
10
386.03214500000007
20
225.672788
10
387.21022900000008
20
225.61392499999999
10
388.38673400000005
20
225.540153
10
389.56130400000006
20
225.45149100000003
10
391.90801499999998
20
225.24637900000002
10
394.250404
20
225.01651200000001
10
396.70849400000003
20
224.75989100000004
10
399.16025200000007
20
224.47287000000003
10
400.65052500000007
20
224.27708900000002
10
402.13674300000008
20
224.06554
10
403.61858600000005
20
223.83827200000002
10
405.09574600000008
20
223.59533200000001
10
408.85049100000003
20
222.92463900000001
10
412.58973900000001
20
222.20940299999998
10
424.20525800000007
20
219.90070900000001
10
425.86928099999994
20
219.58251600000006
10
427.53921800000001
20
219.28122700000003
10
429.21474000000012
20
218.99690899999999
10
430.08623900000003
20
218.85855200000003
10
430.961142
20
218.73213300000003
10
431.83914400000003
20
218.61769800000002
10
432.71993300000008
20
218.51528700000003
10
433.60320300000006
20
218.42493500000003
10
434.41238800000002
20
218.35901800000002
10
435.22379400000005
20
218.30974300000005
10
436.03678400000007
20
218.27714700000001
10
436.85071300000004
20
218.261258
10
437.66493200000008
20
218.26208800000001
10
438.478793
20
218.27963700000001
10
439.22989200000006
20
218.31220900000002
10
439.97934299999997
20
218.36094400000002
10
440.72649100000007
20
218.42580299999997
10
441.47068899999999
20
218.50672700000004
10
442.21127800000005
20
218.603646
10
442.81974500000001
20
218.69370400000003
10
443.423542
20
218.79915099999999
10
444.02193799999998
20
218.91986000000003
10
444.61420900000002
20
219.05568500000001
10
445.19963300000001
20
219.20646200000004
10
445.77750600000002
20
219.372006
10
446.34712300000012
20
219.55211800000001
10
446.90779500000008
20
219.746578
10
447.46859700000005
20
219.94922500000001
10
448.02183100000002
20
220.16264800000002
10
448.56709999999998
20
220.38670100000002
10
449.10402199999999
20
220.62122500000001
10
449.92901399999994
20
220.99749100000002
10
450.74461100000008
20
221.38449399999999
10
451.89953400000002
20
221.94879600000002
10
453.04632300000009
20
222.52184900000003
10
459.93917699999997
20
226.07354799999999
10
468.61758399999997
20
230.63883799999999
10
484.38808399999999
20
239.056973
10
486.48356699999999
20
240.19455800000003
10
488.56260999999995
20
241.34806900000001
10
489.16446100000002
20
241.69262200000006
10
489.75886000000003
20
242.04398600000002
10
490.163185
20
242.293567
10
490.5572610000001
20
242.55172000000002
10
490.82952900000004
20
242.7439
10
491.08832300000012
20
242.94573400000002
10
491.25153600000004
20
243.08789300000001
10
491.39543700000002
20
243.24074100000004
10
491.51871500000004
20
243.40288600000002
10
491.58472600000005
20
243.52575099999999
10
491.62944699999997
20
243.65361300000001
10
491.65219299999995
20
243.78452300000004
10
490.94248700000009
20
243.91749199999998
10
490.227193
20
244.03347100000002
10
489.50708200000008
20
244.13233200000002
10
488.78292100000004
20
244.21397000000002
10
488.05548700000003
20
244.27829599999998
10
487.32555500000001
20
244.32524400000003
10
486.59390800000006
20
244.35476499999999
10
485.86132800000001
20
244.36682099999999
10
485.12860000000001
20
244.36140699999999
10
484.26190599999995
20
244.33050699999998
10
483.39644900000002
20
244.284783
10
482.53269700000004
20
244.22425800000002
10
481.67113700000004
20
244.148967
10
478.27559400000013
20
243.83577900000003
10
477.22333700000007
20
243.75768199999999
10
476.16945700000002
20
243.69224500000001
10
475.11424299999999
20
243.63948500000004
10
472.12420400000008
20
243.52039000000002
10
469.12589600000001
20
243.41096200000004
10
467.98688200000009
20
243.38719800000004
10
466.84743900000001
20
243.38009800000003
10
465.708032
20
243.38967000000002
10
464.32147700000002
20
243.42403900000005
10
462.93583600000005
20
243.47429399999999
10
461.5514490000001
20
243.54042000000004
10
459.24319500000001
20
243.67158700000005
10
456.93726500000002
20
243.82293300000001
10
454.60763100000003
20
243.99254700000003
10
452.28147800000011
20
244.18590399999999
10
451.19258200000002
20
244.28685900000002
10
450.10579100000001
20
244.39923900000002
10
449.02133499999997
20
244.52302000000003
10
447.93943600000006
20
244.65817900000002
10
446.984353
20
244.79179999999999
10
446.03379900000004
20
244.94161000000003
10
445.08829500000002
20
245.10753199999999
10
444.14834800000006
20
245.28947000000002
10
443.28332800000004
20
245.47520700000001
10
442.42544900000007
20
245.67779000000002
10
441.57532900000007
20
245.89707000000004
10
440.73358200000001
20
246.13289500000005
10
439.91176900000005
20
246.38255700000002
10
439.09595300000007
20
246.64247000000003
10
438.28637800000001
20
246.91255400000003
10
437.48328000000004
20
247.19272900000004
10
434.44850599999995
20
248.27457200000003
10
431.711546
20
249.207155
10
430.87158200000005
20
249.49589700000004
10
430.03985199999994
20
249.79704700000002
10
429.21670400000005
20
250.11048000000002
10
428.53274900000002
20
250.391063
10
427.85996399999999
20
250.68565100000001
10
427.19888499999996
20
250.99400700000001
10
426.55004100000008
20
251.31588100000002
10
425.91395799999998
20
251.65101800000002
10
425.29114000000004
20
251.99915000000001
10
424.68208700000002
20
252.359996
10
423.9695660000001
20
252.80980400000004
10
423.2731940000001
20
253.27285600000005
10
422.59342800000007
20
253.74884900000006
10
421.93072199999995
20
254.23746200000005
10
421.28551600000009
20
254.73837000000003
10
420.65823899999998
20
255.25124300000002
10
420.18922800000007
20
255.64810600000001
10
419.73241100000001
20
256.052457
10
419.28800999999999
20
256.46409999999997
10
418.85625000000005
20
256.882834
10
418.35725000000002
20
257.39480600000002
10
417.87398300000007
20
257.914738
10
417.40668700000009
20
258.44237500000008
10
416.95559199999997
20
258.97745400000008
10
416.391031
20
259.67326400000002
10
415.84568200000007
20
260.37717200000003
10
415.319773
20
261.08890000000002
10
414.81350700000002
20
261.80815999999999
10
414.38399199999998
20
262.44733500000001
10
413.97519700000004
20
263.09369199999998
10
413.58734700000008
20
263.74687400000005
10
413.22065600000002
20
264.40652299999999
10
412.87532700000008
20
265.07227
10
412.6178240000001
20
265.61407300000002
10
412.38118100000008
20
266.16090600000001
10
412.16557899999998
20
266.71234599999997
10
411.97119399999997
20
267.267965
10
411.79817200000002
20
267.82732299999998
10
411.64665299999996
20
268.38999000000001
10
411.52492899999999
20
268.92849200000001
10
411.42773299999999
20
269.46963799999997
10
411.35517600000003
20
270.012833
10
411.30733200000003
20
270.55748399999999
10
411.28425800000002
20
271.10299100000009
10
411.285977
20
271.648754
10
411.31711899999999
20
272.18767200000002
10
411.37252700000005
20
272.72555299999999
10
411.45214300000009
20
273.26181500000007
10
411.555879
20
273.79587799999996
10
411.683626
20
274.32717200000002
10
411.83524400000005
20
274.855118
10
412.01430000000005
20
275.40788500000008
10
412.21221100000002
20
275.95722599999999
10
412.42884900000007
20
276.50279799999998
10
412.67700000000002
20
277.08033499999999
10
412.93983600000001
20
277.65440999999998
10
413.21727400000009
20
278.22482100000002
10
413.60115000000008
20
278.97217599999999
10
414.00312200000002
20
279.71445500000004
10
414.42306000000002
20
280.45142799999996
10
414.86082900000008
20
281.182863
10
415.31630000000007
20
281.90853099999998
10
415.80859400000003
20
282.65960899999999
10
416.321462
20
283.40333099999998
10
416.85470000000004
20
284.13939900000003
10
417.40809200000001
20
284.86751600000002
10
417.98141299999997
20
285.58738700000004
10
418.56099
20
286.27518500000002
10
419.16062299999999
20
286.953779
10
419.780035
20
287.62286599999999
10
420.41893899999997
20
288.28213399999999
10
421.0770480000001
20
288.93128300000001
10
421.74839500000007
20
289.56730499999998
10
422.43294400000002
20
290.19579800000002
10
423.13054200000005
20
290.81662
10
423.84102200000001
20
291.42962599999998
10
424.56422400000008
20
292.034672
10
425.65092900000002
20
292.92103900000001
10
426.75772200000006
20
293.79409500000003
10
427.88429800000011
20
294.653592
10
429.03034600000007
20
295.49929400000002
10
430.19555099999997
20
296.33096699999999
10
431.37958400000002
20
297.14838100000003
10
432.58212100000003
20
297.95130499999999
10
826.50230899999997
20
403.80474900000002
10
828.24178500000005
20
403.98644900000011
10
829.9848320000001
20
404.14891399999999
10
831.73105599999997
20
404.29210899999998
10
833.4800560000001
20
404.41600100000005
10
834.63104900000019
20
404.488585
10
835.78324000000009
20
404.55023900000009
10
836.93643500000007
20
404.60095300000006
10
837.71316000000013
20
404.62728400000003
10
838.49045000000001
20
404.64223800000002
10
839.26800100000014
20
404.64581100000004
10
840.04549000000009
20
404.63800100000003
10
840.67686400000014
20
404.61739800000004
10
841.30721100000005
20
404.58403700000008
10
841.93604600000015
20
404.53794000000005
10
842.56288700000005
20
404.47914400000002
10
843.28853200000015
20
404.3965
10
844.01228300000014
20
404.30547700000005
10
845.7880869999999
20
404.05961400000001
10
846.83977799999991
20
403.904111
10
847.50250900000015
20
403.79697900000002
10
848.1609390000001
20
403.67655500000006
10
848.81455500000015
20
403.54292400000008
10
849.25320399999987
20
403.44175800000005
10
849.68589600000018
20
403.32777300000004
10
850.11193200000002
20
403.20115299999998
10
850.53061600000001
20
403.06210800000002
10
850.90778100000011
20
402.91942800000004
10
851.27250300000003
20
402.76048199999997
10
851.62346500000012
20
402.58584400000007
10
851.95940100000007
20
402.39614399999999
10
852.28135199999997
20
402.19286000000005
10
852.60944700000005
20
401.99487000000005
10
852.82174100000009
20
401.88402100000008
10
853.04618699999992
20
401.78671900000006
10
853.28115600000001
20
401.7036720000001
10
853.5249520000001
20
401.63547999999997
10
853.7758130000002
20
401.58263199999999
10
854.03192600000011
20
401.54551499999997
10
854.31947300000002
20
401.51793400000003
10
854.60862500000007
20
401.50156000000004
10
854.89856599999996
20
401.49643599999996
10
855.18846699999995
20
401.50258199999996
10
855.72603100000015
20
401.53306600000008
10
856.26095800000007
20
401.58237900000006
10
856.79200800000001
20
401.65040500000003
10
857.53374600000018
20
401.76748700000007
10
858.27144099999998
20
401.89743800000002
10
859.00467500000002
20
402.04018300000001
10
859.733025
20
402.19564400000002
10
861.08933100000002
20
402.5005240000001
10
862.43824300000006
20
402.822363
10
864.74476700000014
20
403.40158500000001
10
867.04100199999993
20
404.002137
10
880.62187699999993
20
407.66315300000002
10
884.42425200000002
20
408.65443700000009
10
888.24894400000005
20
409.59898300000009
10
889.74029700000017
20
409.94507499999997
10
891.23879900000009
20
410.27433000000002
10
892.7441
20
410.58667400000002
10
894.25583700000004
20
410.88202999999999
10
895.93672600000002
20
411.18593700000008
10
897.62384600000019
20
411.47090600000007
10
899.31679600000007
20
411.73686600000002
10
901.40728300000001
20
412.05055899999996
10
903.50363500000003
20
412.342713
10
905.60543100000018
20
412.61327100000005
10
907.71225299999992
20
412.86217900000003
10
909.82368399999996
20
413.08938799999999
10
911.89627900000005
20
413.29108600000006
10
913.9728980000001
20
413.46943299999998
10
916.053043
20
413.62438700000007
10
917.35726
20
413.70838800000001
10
918.66297900000006
20
413.77887299999998
10
919.96994100000006
20
413.83583100000004
10
921.2778800000001
20
413.87924500000003
10
922.58653200000015
20
413.909108
10
923.8249380000002
20
413.92068100000006
10
925.06343700000002
20
413.91699399999999
10
926.30167500000016
20
413.89804300000009
10
927.53929299999993
20
413.86383599999999
10
928.77594199999999
20
413.81438600000001
10
929.68122699999992
20
413.76742500000006
10
930.58540700000003
20
413.71027000000004
10
931.48826600000007
20
413.64293300000008
10
932.2615780000001
20
413.57584300000008
10
933.03291999999999
20
413.49762900000002
10
933.80199300000004
20
413.40831900000006
10
934.42008800000008
20
413.32583300000005
10
935.03457000000003
20
413.230074
10
935.64490500000022
20
413.12112400000001
10
936.0654310000001
20
413.03678200000002
10
936.48093100000006
20
412.94010600000007
10
936.89072500000009
20
412.83125200000001
10
937.29414700000007
20
412.71040099999999
10
937.69052899999997
20
412.57774799999999
10
938.0856490000001
20
412.42446800000005
10
938.46809500000006
20
412.25495999999998
10
938.83661800000004
20
412.06978399999997
10
939.19001200000002
20
411.86954200000002
10
947.40301999999997
20
416.57859500000001
10
955.55756900000006
20
421.34135000000003
10
963.24277500000005
20
425.90914000000004
10
966.08466899999996
20
427.62621200000007
10
968.90095099999996
20
429.36556900000005
10
969.68578200000013
20
429.86581699999999
10
970.45762200000013
20
430.37669800000003
10
970.79480200000012
20
430.61119300000001
10
971.12112700000012
20
430.85371700000002
10
971.26528900000017
20
430.97033799999997
10
971.36934000000008
20
431.06429300000002
10
971.46997800000008
20
431.16189600000007
10
971.52591099999995
20
431.23750300000006
10
971.56746199999986
20
431.31789100000003
10
971.57582300000001
20
431.36485999999996
10
971.57126899999992
20
431.41210700000011
10
971.55399200000011
20
431.45776399999994
10
911.17474300000003
20
441.21380399999998
10
864.13632600000005
20
448.7357780000001
10
839.72360299999991
20
452.55924500000003
10
834.04551300000003
20
453.40909800000009
10
830.8580310000001
20
453.85622000000006
10
829.90629800000011
20
453.98104999999998
10
828.95258100000001
20
454.09756000000004
10
828.51640999999995
20
454.14563200000003
10
828.182999
20
454.17702200000002
10
827.84932400000002
20
454.20546000000002
10
827.61857800000018
20
454.21356700000001
10
827.38759100000016
20
454.21116699999999
10
827.28686900000014
20
454.201775
10
827.18918799999994
20
454.18154900000002
0
LINE
5
101
100
AcDbEntity
8
0
100
AcDbLine
10
827.09673399999997
20
454.150935
30
0
11
827.09673399999997
21
454.150935
31
0
0
ENDSEC
0
SECTION
2
OBJECTS
0
DICTIONARY
5
C
100
AcDbDictionary
3
ACAD_GROUP
350
D
3
ACAD_MLINESTYLE
350
17
0
DICTIONARY
5
D
100
AcDbDictionary
0
DICTIONARY
5
1A
330
C
100
AcDbDictionary
0
DICTIONARY
5
17
100
AcDbDictionary
0
ENDSEC
0
EOF
